<svg width="28" height="26" viewBox="0 0 28 26" fill="none" xmlns="http://www.w3.org/2000/svg">
<path d="M19.7446 5.21447L18.1271 2.16325C17.7862 1.6888 17.3189 1.39282 16.7951 1.39282H11.2049C10.6811 1.39282 10.2138 1.6888 9.87292 2.16325L8.25539 5.21447C7.9145 5.68964 7.47518 6.03568 6.95139 6.03568H3.30556C2.78986 6.03568 2.29528 6.28026 1.93063 6.71561C1.56597 7.15096 1.36111 7.74143 1.36111 8.35711V22.2857C1.36111 22.9014 1.56597 23.4918 1.93063 23.9272C2.29528 24.3625 2.78986 24.6071 3.30556 24.6071H24.6944C25.2101 24.6071 25.7047 24.3625 26.0694 23.9272C26.434 23.4918 26.6389 22.9014 26.6389 22.2857V8.35711C26.6389 7.74143 26.434 7.15096 26.0694 6.71561C25.7047 6.28026 25.2101 6.03568 24.6944 6.03568H21.1094C20.5838 6.03568 20.0855 5.68964 19.7446 5.21447Z" stroke="#CCCCCC" stroke-width="2" stroke-linecap="round" stroke-linejoin="round"/>
<path d="M18.8465 14.1542C18.8461 13.0531 18.5833 11.9748 18.0888 11.0453C17.5944 10.1159 16.8886 9.37349 16.054 8.90493C15.2193 8.43637 14.2903 8.26095 13.3753 8.39916C12.4602 8.53737 11.597 8.98351 10.8865 9.68547M9.13888 13.2017V14.1673C9.13956 15.2661 9.40151 16.3421 9.89427 17.2702C10.387 18.1983 11.0904 18.9403 11.9224 19.4099C12.7545 19.8795 13.6812 20.0574 14.5947 19.923C15.5081 19.7886 16.3709 19.3473 17.0825 18.6505M5.97916 5.89066V4.29468H4.52083V5.89066H5.97916Z" stroke="#CCCCCC" stroke-width="2" stroke-linecap="round" stroke-linejoin="round"/>
<path d="M20.0764 14.1607L18.8611 15.6116L17.6458 14.1607M10.3542 14.1607L9.13889 12.7098L7.92361 14.1607H10.3542Z" stroke="#CCCCCC" stroke-width="2" stroke-linecap="round" stroke-linejoin="round"/>
</svg>
