<svg width="27" height="27" viewBox="0 0 27 27" fill="none" xmlns="http://www.w3.org/2000/svg">
<path d="M4.5 6.75H22.5V9H4.5V6.75ZM6.75 2.25H20.25V4.5H6.75V2.25ZM22.5 11.25H4.5C3.90326 11.25 3.33097 11.4871 2.90901 11.909C2.48705 12.331 2.25 12.9033 2.25 13.5V22.5C2.25 23.0967 2.48705 23.669 2.90901 24.091C3.33097 24.5129 3.90326 24.75 4.5 24.75H22.5C23.0967 24.75 23.669 24.5129 24.091 24.091C24.5129 23.669 24.75 23.0967 24.75 22.5V13.5C24.75 12.9033 24.5129 12.331 24.091 11.909C23.669 11.4871 23.0967 11.25 22.5 11.25ZM16.875 19.125H14.625V21.375H12.375V19.125H10.125V16.875H12.375V14.625H14.625V16.875H16.875V19.125Z" fill="#E6E6E6"/>
</svg>
