<svg width="27" height="27" viewBox="0 0 27 27" fill="none" xmlns="http://www.w3.org/2000/svg">
<path d="M16.0312 2.53125C15.5837 2.53125 15.1545 2.70904 14.838 3.02551C14.5215 3.34197 14.3438 3.7712 14.3438 4.21875V7.59375C14.3438 8.0413 14.5215 8.47052 14.838 8.78699C15.1545 9.10346 15.5837 9.28125 16.0312 9.28125V11.8125L19.0688 9.28125H22.7812C23.2288 9.28125 23.658 9.10346 23.9745 8.78699C24.291 8.47052 24.4688 8.0413 24.4688 7.59375V4.21875C24.4688 3.7712 24.291 3.34197 23.9745 3.02551C23.658 2.70904 23.2288 2.53125 22.7812 2.53125H16.0312Z" fill="#E6E6E6"/>
<path d="M8.4375 6.75C7.54239 6.75 6.68395 7.10558 6.05101 7.73851C5.41808 8.37145 5.0625 9.22989 5.0625 10.125C5.0625 11.0201 5.41808 11.8786 6.05101 12.5115C6.68395 13.1444 7.54239 13.5 8.4375 13.5C9.33261 13.5 10.1911 13.1444 10.824 12.5115C11.4569 11.8786 11.8125 11.0201 11.8125 10.125C11.8125 9.22989 11.4569 8.37145 10.824 7.73851C10.1911 7.10558 9.33261 6.75 8.4375 6.75ZM12.6562 15.1875H4.21875C3.54742 15.1875 2.90359 15.4542 2.42889 15.9289C1.95418 16.4036 1.6875 17.0474 1.6875 17.7188C1.6875 19.602 2.46206 21.1106 3.73275 22.1316C4.98319 23.1356 6.66056 23.625 8.4375 23.625C10.2144 23.625 11.8918 23.1356 13.1423 22.1316C14.4113 21.1106 15.1875 19.602 15.1875 17.7188C15.1875 17.0474 14.9208 16.4036 14.4461 15.9289C13.9714 15.4542 13.3276 15.1875 12.6562 15.1875Z" fill="#E6E6E6"/>
</svg>
