<svg width="29" height="23" viewBox="0 0 29 23" fill="none" xmlns="http://www.w3.org/2000/svg">
<path d="M13.0538 8.87487L23.1793 1L28 4.74996L17.8752 12.6254M5.33931 14.875L1 18.25L5.82138 22L10.1607 18.625L5.33931 14.875Z" stroke="#E6E6E6" stroke-width="2" stroke-linecap="round" stroke-linejoin="round"/>
<path d="M15.4648 10.7501L10.6434 14.4995M4.85793 14.5C4.73124 14.4015 4.63074 14.2846 4.56217 14.1559C4.4936 14.0272 4.45831 13.8892 4.45831 13.7499C4.45831 13.6106 4.4936 13.4726 4.56217 13.3439C4.63074 13.2152 4.73124 13.0982 4.85793 12.9997L10.6434 8.49988C10.8992 8.30104 11.246 8.18933 11.6076 8.18933C11.9692 8.18933 12.316 8.30104 12.5717 8.49988L18.3572 12.9997C18.4839 13.0982 18.5844 13.2152 18.653 13.3439C18.7216 13.4726 18.7569 13.6106 18.7569 13.7499C18.7569 13.8892 18.7216 14.0272 18.653 14.1559C18.5844 14.2846 18.4839 14.4015 18.3572 14.5L12.5717 18.9999C12.316 19.1987 11.9692 19.3104 11.6076 19.3104C11.246 19.3104 10.8992 19.1987 10.6434 18.9999L4.85793 14.5V14.5Z" stroke="#E6E6E6" stroke-width="2" stroke-linecap="round" stroke-linejoin="round"/>
<path d="M19.8041 3.62463L24.6248 7.37513" stroke="#E6E6E6" stroke-width="2" stroke-linecap="round" stroke-linejoin="round"/>
<path d="M8.71448 10.0002L16.4296 15.9999M16.4283 6.24976L21.2497 10.0002L16.4283 6.24976Z" stroke="#E6E6E6" stroke-width="2" stroke-linecap="round" stroke-linejoin="round"/>
</svg>
