<svg width="27" height="27" viewBox="0 0 27 27" fill="none" xmlns="http://www.w3.org/2000/svg">
<path d="M23.625 9.00001C24.2217 9.00001 24.794 9.23706 25.216 9.65902C25.6379 10.081 25.875 10.6533 25.875 11.25V15.75C25.875 16.3467 25.6379 16.919 25.216 17.341C24.794 17.763 24.2217 18 23.625 18H22.4303C22.156 20.175 21.0974 22.1751 19.4532 23.625C17.809 25.0749 15.6922 25.875 13.5 25.875V23.625C15.2902 23.625 17.0071 22.9139 18.273 21.648C19.5388 20.3821 20.25 18.6652 20.25 16.875V10.125C20.25 8.3348 19.5388 6.61791 18.273 5.35204C17.0071 4.08617 15.2902 3.37501 13.5 3.37501C11.7098 3.37501 9.9929 4.08617 8.72703 5.35204C7.46116 6.61791 6.75 8.3348 6.75 10.125V18H3.375C2.77826 18 2.20597 17.763 1.78401 17.341C1.36205 16.919 1.125 16.3467 1.125 15.75V11.25C1.125 10.6533 1.36205 10.081 1.78401 9.65902C2.20597 9.23706 2.77826 9.00001 3.375 9.00001H4.56975C4.84428 6.82527 5.90296 4.82544 7.54714 3.37577C9.19133 1.9261 11.308 1.12622 13.5 1.12622C15.692 1.12622 17.8087 1.9261 19.4529 3.37577C21.097 4.82544 22.1557 6.82527 22.4303 9.00001H23.625Z" fill="#E6E6E6"/>
<path d="M8.73 17.7581L9.9225 15.8501C10.9947 16.5218 12.2348 16.877 13.5 16.875C14.7652 16.877 16.0053 16.5218 17.0775 15.8501L18.27 17.7581C16.8404 18.6538 15.187 19.1276 13.5 19.125C11.813 19.1276 10.1596 18.6538 8.73 17.7581Z" fill="#E6E6E6"/>
</svg>
